<?xml version="1.0" encoding="utf-8"?>
<!-- Generator: Adobe Illustrator 26.0.3, SVG Export Plug-In . SVG Version: 6.00 Build 0)  -->
<svg version="1.1" id="Layer_1" xmlns="http://www.w3.org/2000/svg" xmlns:xlink="http://www.w3.org/1999/xlink" x="0px" y="0px"
	 viewBox="0 0 776.1 136.4" style="enable-background:new 0 0 776.1 136.4;" xml:space="preserve">
<style type="text/css">
	.st0{fill:#ED0000;}
	.st1{fill:#ED1C24;}
	.st2{fill:#FFFFFF;}
	.st3{fill-rule:evenodd;clip-rule:evenodd;fill:#ED1C24;}
	.st4{fill-rule:evenodd;clip-rule:evenodd;fill:#FFFFFF;}
	.st5{fill:none;}
</style>
<g>
	<g>
		<path class="st0" d="M423.3,107.6c-2.8,0-5.2,1-7.2,3.1c-2,2-3,4.5-3,7.3c0,2.8,1,5.3,3,7.3c2,2,4.4,3.1,7.2,3.1
			c2.9,0,5.4-1,7.4-3.1c2-2,3-4.5,3-7.3c0-2.8-1-5.3-3-7.3C428.7,108.6,426.2,107.6,423.3,107.6z"/>
		<path class="st0" d="M438.5,38.8v10.7h-50.7h-2.2h-4.9l-16.2-10.7v10.7h-4.8h-2.2h-21.1v46.6c-3.8-6.1-7.8-10.5-11.9-13.2v-1.6
			c0-2.8,0.1-5.8,0.3-9c0.2-3.3,0.5-6.1,0.8-8.5l0.3-3.5c0.8-4.5,2.5-7.9,5.1-10c2.6-2.2,5.4-3.5,8.4-4.1c3-0.6,5.3-0.9,6.9-0.9
			l1.8,0.1c1.6,0,2.7-0.4,3.3-1.1c0.7-0.7,1.1-1.6,1.3-2.5c0.2-0.9,0.3-1.5,0.3-1.9V30c-0.1-2.5-1.3-3.7-3.6-3.7l-0.9,0.1
			c-11.8,1-20.5,3.8-25.9,8.5c-5.4,4.7-8.9,9.6-10.3,14.6h-26.8h-2.2h-4.9l-16.2-10.6v10.6h-11.9l-16.3-10.6v10.6h-25
			c-3.6-1.7-7.1-2.6-10.6-2.6h-0.8c-6.5,0.4-11.3,2.3-14.4,5.6c-3.1,3.3-5.1,6.9-6,10.9c-0.9,4-1.3,7.1-1.3,9.4l0.1,2.5
			c0.4,6.4,2.6,10.7,6.5,12.9c2.2,1.3,4.4,1.9,6.4,1.9c2.1-0.1,3.8-0.5,5.2-1.4c1.4-0.9,2.5-1.9,3.3-3.1c0.9-1.2,1.5-2.4,2-3.6
			c0.4-1.2,0.7-2.2,0.9-3l0.2-1.2l0.1-1.6c0-2.2-0.4-4.1-1.1-5.7c-0.7-1.6-1.5-2.8-2.1-3.6l-1.1-1.3c0.4-1,1.5-1.5,3.3-1.7h0.6
			c4.8,0.7,7.6,4.2,8.5,10.5c0.3,2.3,0.4,4.8,0.4,7.6c0,6.8-2.1,11.9-6.4,15.2c-3.7,2.9-8,4.4-12.7,4.5c-9.1,0-15.6-3.9-19.4-11.8
			c-2.8-6-4.2-13.4-4.2-22.3c0-3.6,0.1-6.5,0.4-8.9l0.4-3.7c0.6-7,1.9-12.7,3.8-17.2c1.9-4.5,4.2-8,6.7-10.5
			c2.6-2.5,5.1-4.4,7.5-5.5s4.5-1.8,6.2-2l2.5-0.3c10.8,0,18.2,3.3,22.2,10c2.5,4.1,3.8,8.5,3.8,13.2v0.9h1.2v-1.8
			c0-5.1-0.8-9.2-2.4-12.4c-1.6-3.2-3.6-5.8-6-7.6c-2.4-1.9-4.8-3.2-7.3-4c-2.5-0.8-4.7-1.3-6.7-1.6c-2-0.2-3.3-0.3-4-0.3
			c-9.5,0-17.2,3.6-23,10.9c-4.8,6-8.2,13.7-10.4,23h-7.2v4.4h6.2c-1,5.7-1.6,10.4-1.8,14.3l-0.3,5.8c0.4,10,2.1,17.8,5.2,23.5
			c3.1,5.7,6.7,9.8,10.7,12.4c4.1,2.6,7.8,4.1,11.2,4.7c3.4,0.6,5.6,0.9,6.5,0.9c13.5-0.8,22.6-6.1,27.3-16l18.2,11.2l12.8,8.4V53.8
			h11.8v54.5l16.3,10.7V53.8h4.8h2.2h25.7c-0.4,3.1-0.7,5.3-0.7,6.6l0.6,17.3c-1.6-0.2-2.9-0.3-4.1-0.3c-1.2,0-2.1,0.1-2.8,0.2
			l-1,0.1c-4.8,1-8.3,2.8-10.5,5.2c-2.3,2.5-3.7,5-4.3,7.6c-0.6,2.6-0.9,4.6-0.9,6c0.1,5.6,1.3,9.8,3.6,12.6c3.3,4.2,8,6.2,14.1,6.2
			c1.6,0,3-0.1,4.1-0.2l1.6-0.3c5.1-1.7,8.6-5.1,10.5-10.2c1.9-5.1,2.9-9.7,3.1-13.9c5.4,4.1,9.4,8.6,11.9,13.4v4l16.3,10.7v-65h4.8
			h2.2h4.8v54.3l16.3,10.7v-65h4.8h2.2h50.7v1.8l-48.8,35.1l16.1,11.8h0.2c1.1-0.3,3.6-0.4,7.4-0.4c10.5,0,19.1,2.2,25.9,6.6
			l15.6,10.2V53.8h7v-4.4h-7.1L438.5,38.8z M234.1,100.8l-12.3-7.6c1.3-4.4,1.9-8.8,1.9-13.4l-0.1-2.9c-0.7-10.4-3.5-18.1-8.6-23.1
			H234L234.1,100.8L234.1,100.8z M310,101.2c-1,1.9-2.1,3.1-3.3,3.6s-2.1,0.7-2.7,0.7c-2.7-0.1-4.6-0.7-5.7-1.8
			c-1.9-1.7-2.8-4.2-2.8-7.5l0.1-2.1c0.9-6.2,5.1-9.3,12.7-9.3l3.1,0.2l0.2,7C311.6,96.3,311,99.3,310,101.2z M438.5,103.1
			c-7-3.6-15.4-5.4-25.1-5.4H412l26.4-20.3L438.5,103.1L438.5,103.1z"/>
		<path class="st0" d="M537.1,38.8v10.7h-52.9v4.4h52.9v1.8l-48.8,35.1l16.1,11.8h0.2c1.2-0.3,3.7-0.4,7.6-0.4
			c10.4,0,19,2.2,25.7,6.6l15.6,10.2V73.5c4.2-0.7,7.4-1.1,9.7-1.1c3.6,0.1,6.6,0.7,8.8,1.7c3.1,1.3,5.3,3,6.6,5.2
			c0.4,1,0.7,1.7,0.9,2.3l0.2,0.9c-1.9-2.5-4.4-3.7-7.5-3.7l-1.6,0.1c-2.1,0.4-3.7,1.2-4.9,2.4c-1.2,1.1-2,2.4-2.6,3.7
			c-0.5,1.3-0.8,2.5-1,3.5c-0.1,1-0.2,1.6-0.2,1.7c0,4.4,1.8,7.4,5.5,9.1c2.2,1,4.4,1.5,6.8,1.5h0.3c8.1-1.4,12.2-6.7,12.2-16
			c0-2.8-0.2-5.1-0.7-7.1l-0.8-3c-2-5.1-5-9-9-11.7s-8.2-4.5-12.4-5.6c-4.3-1-7.8-1.6-10.4-1.8v-1.8H591v-4.4h-37.6L537.1,38.8z
			 M537.1,103.1c-7-3.6-15.4-5.4-25.1-5.4h-1.3l26.4-20.3V103.1z"/>
		<path class="st0" d="M682.7,9.3l-4.5-1.2c-4.1,13.5-16.3,23-36.6,28.7L658.1,47C674.1,37.6,682.3,25,682.7,9.3z"/>
		<path class="st0" d="M728.7,107.6c-2.8,0-5.2,1-7.2,3.1c-2,2-3,4.5-3,7.3c0,2.8,1,5.3,3,7.3c2,2,4.4,3.1,7.2,3.1
			c2.9,0,5.4-1,7.4-3.1c2-2,3-4.5,3-7.3c0-2.8-1-5.3-3-7.3C734,108.6,731.6,107.6,728.7,107.6z"/>
		<path class="st0" d="M760.2,49.5l-16.3-10.7v10.7h-50.7H691h-4.9l-16.2-10.7v10.7h-4.8h-2.2H658l-16.3-10.6v23.5
			c-1.1-2-2.7-4-4.6-6c-2-2-4.5-3.6-7.6-5c-3.1-1.4-6.9-2.1-11.4-2.1l-2.6,0.3c-1.7,0.1-3.8,0.6-6.2,1.4c-2.5,0.8-4.9,2-7.4,3.7
			c-2.5,1.7-4.6,4-6.3,7s-2.6,6.7-2.6,11.3c0,3.8,1,7.7,2.9,11.6c3.4,6.9,9.9,10.4,19.3,10.4c0.9,0,2.1-0.1,3.7-0.3
			c4.3-0.6,7.7-2.7,10.2-6.4c1.4-2.1,2.2-5,2.5-8.7c0-2-0.6-4.1-1.8-6.4c-2.2-3.8-6.1-5.7-11.9-5.7l-1,0.2c-0.7,0.1-1.5,0.4-2.5,0.8
			c-1,0.4-2,1-3,1.8s-1.8,1.8-2.5,3c-0.7,1.2-1,2.7-1.1,4.5l-0.6-0.8c-0.3-0.5-0.6-1.3-1-2.3c-0.4-1-0.6-2.2-0.6-3.7
			c0-1.8,0.5-3.9,1.6-6.5l0.7-1.1c0.4-0.7,1.2-1.6,2.2-2.6c1-1,2.4-1.8,4.1-2.6c1.7-0.7,3.9-1.1,6.5-1.1c1.7,0,3.7,0.3,6,0.8
			c2.8,0.6,5.6,2.1,8.3,4.6c3.6,3.4,6,8.5,6.9,15.2v30.4l16.4,10.6V53.8h4.8h2.2h4.8v54.3l16.3,10.7v-65h4.8h2.2h50.7v1.8
			l-48.8,35.1l16.1,11.8h0.2c1.1-0.3,3.6-0.4,7.4-0.4c10.5,0,19.1,2.2,25.9,6.6l15.6,10.2V53.8h7v-4.4H760.2z M743.9,103.1
			c-7-3.6-15.4-5.4-25.1-5.4h-1.3l26.4-20.3V103.1z"/>
	</g>
	<g>
		<g>
			<path class="st1" d="M79.6,102.6L79.6,102.6c-1.1,0-2.2,0.3-3,0.8c0,0,0,0,0,0c-1.6,1-2.6,2.7-2.6,4.7c0,3.1,2.5,5.6,5.6,5.6
				c3.1,0,5.6-2.5,5.6-5.6C85.1,105.2,82.6,102.7,79.6,102.6z M79.6,102.6L79.6,102.6c-1.1,0-2.2,0.3-3,0.8c0,0,0,0,0,0
				c-1.6,1-2.6,2.7-2.6,4.7c0,3.1,2.5,5.6,5.6,5.6c3.1,0,5.6-2.5,5.6-5.6C85.1,105.2,82.6,102.7,79.6,102.6z M68.8,8.3
				c-33.1,0-60,26.9-60,60c0,33.1,26.9,60,60,60c33.1,0,60-26.9,60-60C128.8,35.2,101.9,8.3,68.8,8.3z M86.3,99.9
				c-1.4,0.7-2.8,1.3-4.2,1.8c2.6,1,4.4,3.5,4.4,6.5c0,3.8-3.1,7-7,7c-3.8,0-7-3.1-7-7c0-1.6,0.5-3,1.4-4.2
				c-3.1,0.5-6.2,0.8-9.3,0.6c0.6,1,1,2.3,1,3.6c0,3.8-3.1,7-7,7c-3.8,0-7-3.1-7-7c0-2.2,1-4.1,2.6-5.4C46,100.2,38.3,94.6,33,85.3
				c-8.7-15-6.5-34.3,2-44.8C40.3,33.9,50.9,30,55.8,38c4.4,7.3-2.5,12.1-5.7,19.4c-11.7,26,23,50.9,46.8,27.8
				c12.1-11.8,14.7-32.5,2.7-51.9C118.6,56.2,110.9,87.5,86.3,99.9z M79.5,102.6c-1.1,0-2.1,0.3-2.9,0.8c0,0,0,0,0,0
				c-1.6,1-2.6,2.7-2.6,4.7c0,3.1,2.5,5.6,5.6,5.6c3.1,0,5.6-2.5,5.6-5.6C85.1,105.2,82.6,102.7,79.5,102.6L79.5,102.6z M79.6,102.6
				L79.6,102.6c-1.1,0-2.2,0.3-3,0.8c0,0,0,0,0,0c-1.6,1-2.6,2.7-2.6,4.7c0,3.1,2.5,5.6,5.6,5.6c3.1,0,5.6-2.5,5.6-5.6
				C85.1,105.2,82.6,102.7,79.6,102.6z M79.6,102.6L79.6,102.6c-1.1,0-2.2,0.3-3,0.8c0,0,0,0,0,0c-1.6,1-2.6,2.7-2.6,4.7
				c0,3.1,2.5,5.6,5.6,5.6c3.1,0,5.6-2.5,5.6-5.6C85.1,105.2,82.6,102.7,79.6,102.6z"/>
			<g>
				<path class="st1" d="M64.3,108.2c0,3.1-2.5,5.6-5.6,5.6c-3.1,0-5.6-2.5-5.6-5.6c0-2.1,1.2-3.9,2.9-4.9c0.8-0.4,1.7-0.7,2.7-0.7
					c1.7,0,3.2,0.7,4.2,1.9C63.7,105.5,64.3,106.8,64.3,108.2z"/>
				<path class="st2" d="M95.2,76.6l-0.3-1c-0.6-1.6-1.6-2.9-2.9-3.7c-1.3-0.9-2.6-1.4-4-1.8c-1.4-0.3-2.5-0.5-3.3-0.6V49.7H88v11.1
					c0,3.4,1.7,6.5,4.5,8.3V49.7h1.9v-1.2h-2L88,45.5v2.9h-3.3l-4.5-2.9v2.9h-6.9c-1-0.5-2-0.7-2.9-0.7h-0.2c-1.8,0.1-3.1,0.6-4,1.5
					c-0.9,0.9-1.4,1.9-1.6,3c-0.2,1.1-0.4,2-0.4,2.6l0,0.7c0.1,1.8,0.7,3,1.8,3.6c0.6,0.3,1.2,0.5,1.8,0.5c0.6,0,1.1-0.2,1.4-0.4
					c0.4-0.2,0.7-0.5,0.9-0.8c0.2-0.3,0.4-0.7,0.5-1c0.1-0.3,0.2-0.6,0.2-0.8l0.1-0.3l0-0.4c0-0.6-0.1-1.1-0.3-1.6
					c-0.2-0.4-0.4-0.8-0.6-1l-0.3-0.4c0.1-0.3,0.4-0.4,0.9-0.5h0.2c1.3,0.2,2.1,1.2,2.3,2.9c0.1,0.6,0.1,1.3,0.1,2.1
					c0,1.9-0.6,3.3-1.8,4.2c-1,0.8-2.2,1.2-3.5,1.2c-2.5,0-4.3-1.1-5.4-3.3c-0.8-1.6-1.2-3.7-1.2-6.2c0-1,0-1.8,0.1-2.5l0.1-1
					c0.2-1.9,0.5-3.5,1-4.8c0.5-1.2,1.2-2.2,1.9-2.9c0.7-0.7,1.4-1.2,2.1-1.5c0.7-0.3,1.2-0.5,1.7-0.6l0.7-0.1c3,0,5,0.9,6.1,2.8
					c0.7,1.1,1.4,3.9,1.4,3.9v-0.5c0-1.4-0.2-2.5-0.7-3.4c-0.4-0.9-1-1.6-1.6-2.1c-0.7-0.5-1.3-0.9-2-1.1c-0.7-0.2-1.3-0.4-1.8-0.4
					c-0.5-0.1-0.9-0.1-1.1-0.1c-2.6,0-4.7,1-6.3,3c-1.3,1.7-2.3,3.8-2.9,6.3L60,49.7c-0.3,1.6-0.5,2.9-0.5,3.9l-0.1,1.6
					c0.1,2.8,0.6,4.9,1.4,6.5c0.9,1.6,1.8,2.7,3,3.4c1.1,0.7,2.1,1.1,3.1,1.3c0.9,0.2,1.5,0.3,1.8,0.3c3.7-0.2,6.2-1.7,7.5-4.4
					l3.3,2v3.3H62.6V69h16.9v0.6L64,80.8l5.1,3.8h0.1c0.4-0.1,1.2-0.1,2.4-0.1c3.3,0,6.1,0.7,8.2,2.1l5,3.2V75.3
					c1.3-0.2,2.4-0.4,3.1-0.4c1.2,0,2.1,0.2,2.8,0.5c1,0.4,1.7,1,2.1,1.7c0.1,0.3,0.2,0.6,0.3,0.8l0.1,0.3c-0.6-0.8-1.4-1.2-2.4-1.2
					l-0.5,0c-0.7,0.1-1.2,0.4-1.6,0.8c-0.4,0.4-0.6,0.8-0.8,1.2c-0.2,0.4-0.3,0.8-0.3,1.1c0,0.3-0.1,0.5-0.1,0.6
					c0,1.4,0.6,2.4,1.7,2.9c0.7,0.3,1.4,0.5,2.2,0.5h0.1c2.6-0.5,3.9-2.1,3.9-5.1C95.4,78,95.3,77.3,95.2,76.6z M79.5,84.8
					c-2.2-1.1-4.9-1.7-8-1.7h-0.4l8.4-6.5V84.8z M80.2,62.6l-3.4-2.1c0.3-1.2,0.5-2.4,0.5-3.7l0-0.8c-0.2-2.9-1-5-2.4-6.4h5.3V62.6z
					"/>
				<path class="st3" d="M64.3,108.2c0,3.1-2.5,5.6-5.6,5.6c-3.1,0-5.6-2.5-5.6-5.6c0-2.1,1.2-3.9,2.9-4.9c0.8-0.4,1.7-0.7,2.7-0.7
					c1.7,0,3.2,0.7,4.2,1.9C63.7,105.5,64.3,106.8,64.3,108.2z"/>
				<path class="st4" d="M64.3,108.2c0,3.1-2.5,5.6-5.6,5.6c-3.1,0-5.6-2.5-5.6-5.6c0-2.1,1.2-3.9,2.9-4.9c0.8-0.4,1.7-0.7,2.7-0.7
					c1.7,0,3.2,0.7,4.2,1.9C63.7,105.5,64.3,106.8,64.3,108.2z"/>
				<path class="st3" d="M64.3,108.2c0,3.1-2.5,5.6-5.6,5.6c-3.1,0-5.6-2.5-5.6-5.6c0-2.1,1.2-3.9,2.9-4.9c0.8-0.4,1.7-0.7,2.7-0.7
					c1.7,0,3.2,0.7,4.2,1.9C63.7,105.5,64.3,106.8,64.3,108.2z"/>
				<circle class="st4" cx="58.7" cy="108.2" r="2.8"/>
				<path class="st4" d="M99.4,33.3c12,19.5,9.5,40.1-2.7,51.9C73,108.4,38.3,83.5,50,57.4c3.3-7.2,10.2-12.1,5.7-19.4
					c-4.9-8-15.5-4.2-20.8,2.4C26.4,51,24.3,70.3,33,85.3c5.4,9.3,13,14.9,21.3,17.5c-1.6,1.3-2.6,3.2-2.6,5.4c0,3.8,3.1,7,7,7
					c3.9,0,7-3.1,7-7c0-1.3-0.4-2.5-1-3.6c3.1,0.1,6.2-0.1,9.3-0.6c-0.9,1.2-1.4,2.6-1.4,4.2c0,3.8,3.1,7,7,7c3.9,0,7-3.1,7-7
					c0-2.9-1.8-5.4-4.4-6.5c1.4-0.5,2.8-1.2,4.2-1.8C110.9,87.5,118.6,56.2,99.4,33.3z M58.7,113.8c-3.1,0-5.6-2.5-5.6-5.6
					c0-2.1,1.2-3.9,2.9-4.9c0.8-0.4,1.7-0.7,2.7-0.7c1.7,0,3.2,0.7,4.2,1.9c0.9,1,1.4,2.3,1.4,3.7C64.3,111.3,61.8,113.8,58.7,113.8
					z M85.1,108.2c0,3.1-2.5,5.6-5.6,5.6c-3.1,0-5.6-2.5-5.6-5.6c0-2,1.1-3.8,2.6-4.7c0,0,0,0,0,0c0.9-0.5,1.9-0.8,2.9-0.8h0.1
					C82.6,102.7,85.1,105.2,85.1,108.2z"/>
				<path class="st3" d="M85.1,108.2c0,3.1-2.5,5.6-5.6,5.6c-3.1,0-5.6-2.5-5.6-5.6c0-2,1.1-3.8,2.6-4.7c0,0,0,0,0,0
					c0.9-0.5,1.9-0.8,2.9-0.8h0.1C82.6,102.7,85.1,105.2,85.1,108.2z"/>
				<path class="st4" d="M85.1,108.2c0,3.1-2.5,5.6-5.6,5.6c-3.1,0-5.6-2.5-5.6-5.6c0-2,1.1-3.8,2.6-4.7c0,0,0,0,0,0
					c0.9-0.5,1.9-0.8,2.9-0.8h0.1C82.6,102.7,85.1,105.2,85.1,108.2z"/>
				<path class="st3" d="M85.1,108.2c0,3.1-2.5,5.6-5.6,5.6c-3.1,0-5.6-2.5-5.6-5.6c0-2,1.1-3.8,2.6-4.7c0,0,0,0,0,0
					c0.9-0.5,1.9-0.8,2.9-0.8h0.1C82.6,102.7,85.1,105.2,85.1,108.2z"/>
				<circle class="st4" cx="79.5" cy="108.2" r="2.8"/>
				<path class="st1" d="M37.3,47c1.4,0.5,2.7,1,4,1.5c-0.2,0.3-0.5,0.6-0.7,0.8c-0.6,0.7-1.2,1.4-1.8,2.1c-0.2,0.2-0.2,0.4,0,0.6
					c0.3,0.3,0.7,0.6,1,0.9c0.2,0.2,0.4,0.2,0.6,0c0.8-0.9,1.6-1.8,2.4-2.7c0-0.1,0.1-0.1,0.2-0.2c0.6,1.3,1.3,2.5,1.9,3.8
					c1.2-3.9,2.4-7.7,3.6-11.6C44.7,43.8,41.1,45.4,37.3,47z"/>
			</g>
		</g>
		<path class="st5" d="M128.8,68.3c0,33.1-26.8,60-60,60c-33.1,0-60-26.9-60-60c0-33.1,26.9-60,60-60
			C101.9,8.3,128.8,35.2,128.8,68.3z"/>
	</g>
</g>
</svg>
